<svg xmlns="http://www.w3.org/2000/svg" viewBox="0 0 240.15 240.15"><defs><style>.cls-1{fill:#e10000;}.cls-2{fill:none;stroke:#e10000;stroke-miterlimit:10;stroke-width:8px;}</style></defs><title>placeholderAsset 3</title><g id="Layer_2" data-name="Layer 2"><g id="Layer_1-2" data-name="Layer 1"><path class="cls-1" d="M120.28,23a97.28,97.28,0,1,0,97.28,97.28A97.28,97.28,0,0,0,120.28,23Zm9.54,84.08c23.32,7.14,34.15,20.31,34,40.84-.15,23.15-19.92,42.24-44.6,42.08-28.61-.18-44.64-19.5-44.49-43.09l31.23.2a13.65,13.65,0,0,0,13.45,13.84c8.08.05,13.13-4.5,13.17-11.27.06-9.83-12.8-12.75-23.48-16.53-22-8-34.17-18.34-34-40.84.15-23.15,20.14-42.24,44.82-42.08,29,.19,42.68,18.84,44.27,43.09l-30.13-.19c0-7.42-4.5-13.57-13.45-13.62-7,0-13.78,4.06-13.84,12.58C106.7,101.91,118.7,103.73,129.81,107.08Z"/><path class="cls-1" d="M120,73.38c13.54.09,18.07,8.2,20,13.67l16.38.11c-1.23-12.89-10.72-30.64-36.27-30.81-20.31-.13-37.45,16.14-37.57,36-.1,16.16,5.94,26.46,29.91,35.13,12.42,4.67,27.46,8,27.37,22.23-.07,11.57-10.16,17.4-20.42,17.34-11.13-.29-18.08-6.67-20-13.89l-17-.11c.33,16.38,16.18,30.68,36.92,30.81,20.31.13,37-16.14,37.14-36,.14-22.05-12.91-30.22-33-36-12.86-3.8-24-6.92-23.89-19.81C99.63,80.68,108.19,73.31,120,73.38Zm-4.49-14.44,4.59,0v1.09L110.24,60Zm-12.91,4.28,17.47.11v1.09l-19.22-.12ZM96,67.77l24,.15V69l-25.33-.16Zm-4.18,4.34,19.22.12-2.41,1.08L90.94,73.2Zm-6.2,13.28,12.67.08-.44,1.31L85.18,86.7ZM84.72,90l12.67.08v1.09l-12.67-.08Zm0,4.37,12.67.08.21,1.09-12.88-.08Zm.41,4.59L98.2,99l.43,1.09L85.31,100Zm41.18,81.72-7,0v-1.09l11.14.07Zm11.17-4.51L119.32,176v-1.09L139,175Zm5.71-4.33-23.8-.15v-1.09l24.89.16Zm4.4-4.78-.22.44-17.25-.11,2.63-1.29,15.5.1Zm2.43-4.13-13.32-.09,1.1-1.08,12.88.08Zm2.21-4.35L140,158.46l.66-1.31,12,.08Zm1.34-4.58-12-.08.22-1.09,12,.08Zm.46-4.36-12-.08v-1.09l12.23.08Zm0-4.59-12.67-.08-.21-1.09,12.88.08Zm-.19-4.37-14.19-.09-.65-1.1,14.41.09Zm-1.5-4.6-15.94-.1-1.3-1.1,16.81.11ZM150,130.57l.43,1.09-21.18-.14-2.39-1.11Zm-2.6-3.29-29.92-.19-3.27-1.33,32.1.21Zm-5.65-4.62L107,122.43l-1.74-1.1,35.16.23Zm-10.66-5.75,3.27,1.33L99.17,118l-2.39-1.33Zm-10-3.34-28.17-.18-1.08-1.1,25.11.16ZM106,108l1.74,1.1L89,109l-.65-1.1Zm-5.43-4.84.22.22h0l1.09,1.1-15.5-.1-.21-1.09,14.63.09Zm-1.17-21-12.88-.08L86.74,81l13.32.09Zm3.08-4.35-14.19-.09L89,76.46l15.07.1Z"/><circle class="cls-2" cx="120.07" cy="120.07" r="116.07"/></g></g></svg>